<mxfile host="www.draw.io" modified="2019-11-04T19:44:30.540Z" agent="Mozilla/5.0 (Windows NT 10.0; Win64; x64; rv:70.0) Gecko/20100101 Firefox/70.0" etag="Ohpf9zg0aXadWGE32zk9" version="12.2.0" type="github" pages="1">
  <diagram name="Page-1" id="929967ad-93f9-6ef4-fab6-5d389245f69c">
    <mxGraphModel dx="1168" dy="725" grid="1" gridSize="10" guides="1" tooltips="1" connect="1" arrows="1" fold="1" page="1" pageScale="1.5" pageWidth="1169" pageHeight="826" background="none" math="0" shadow="0">
      <root>
        <mxCell id="0" style=";html=1;"/>
        <mxCell id="1" style=";html=1;" parent="0"/>
        <mxCell id="R7YGYTRPfJBUuW-QX1SR-2" value="Utilisateur" style="swimlane;fontStyle=1;align=center;verticalAlign=top;childLayout=stackLayout;horizontal=1;startSize=26;horizontalStack=0;resizeParent=1;resizeParentMax=0;resizeLast=0;collapsible=1;marginBottom=0;" parent="1" vertex="1">
          <mxGeometry x="130" y="210" width="290" height="270" as="geometry"/>
        </mxCell>
        <mxCell id="R7YGYTRPfJBUuW-QX1SR-3" value="Nom : Chaine&#xa;Prenom :Chaine&#xa;Age : int&#xa;Poids : int&#xa;statut : statut&#xa;PMR : boolean&#xa;Priorité : Comparator&#xa;Source : Etage&#xa;Destination : Etage&#xa;&#xa;" style="text;strokeColor=none;fillColor=none;align=left;verticalAlign=top;spacingLeft=4;spacingRight=4;overflow=hidden;rotatable=0;points=[[0,0.5],[1,0.5]];portConstraint=eastwest;" parent="R7YGYTRPfJBUuW-QX1SR-2" vertex="1">
          <mxGeometry y="26" width="290" height="144" as="geometry"/>
        </mxCell>
        <mxCell id="R7YGYTRPfJBUuW-QX1SR-4" value="" style="line;strokeWidth=1;fillColor=none;align=left;verticalAlign=middle;spacingTop=-1;spacingLeft=3;spacingRight=3;rotatable=0;labelPosition=right;points=[];portConstraint=eastwest;" parent="R7YGYTRPfJBUuW-QX1SR-2" vertex="1">
          <mxGeometry y="170" width="290" height="20" as="geometry"/>
        </mxCell>
        <mxCell id="R7YGYTRPfJBUuW-QX1SR-5" value="appelerAscenceur(Ascenceur, String sens)&#xa;entrer()&#xa;sortir()&#xa;DemanderEtage(Ascenceur, Etage)&#xa;&#xa;" style="text;strokeColor=none;fillColor=none;align=left;verticalAlign=top;spacingLeft=4;spacingRight=4;overflow=hidden;rotatable=0;points=[[0,0.5],[1,0.5]];portConstraint=eastwest;" parent="R7YGYTRPfJBUuW-QX1SR-2" vertex="1">
          <mxGeometry y="190" width="290" height="80" as="geometry"/>
        </mxCell>
        <mxCell id="R7YGYTRPfJBUuW-QX1SR-18" value="Ascenceur" style="swimlane;fontStyle=1;align=center;verticalAlign=top;childLayout=stackLayout;horizontal=1;startSize=26;horizontalStack=0;resizeParent=1;resizeParentMax=0;resizeLast=0;collapsible=1;marginBottom=0;" parent="1" vertex="1">
          <mxGeometry x="670" y="261" width="190" height="240" as="geometry"/>
        </mxCell>
        <mxCell id="R7YGYTRPfJBUuW-QX1SR-19" value="couleur : String&#xa;etagesDesservis : Set(Etage)&#xa;poidMax : int&#xa;etagesADesservir : Queue(Etage)&#xa;passager: Queue(Utilisateur)&#xa;Sens : String&#xa;Position  : Etage&#xa;NumeroCabine : int&#xa;&#xa;&#xa;" style="text;strokeColor=none;fillColor=none;align=left;verticalAlign=top;spacingLeft=4;spacingRight=4;overflow=hidden;rotatable=0;points=[[0,0.5],[1,0.5]];portConstraint=eastwest;" parent="R7YGYTRPfJBUuW-QX1SR-18" vertex="1">
          <mxGeometry y="26" width="190" height="124" as="geometry"/>
        </mxCell>
        <mxCell id="R7YGYTRPfJBUuW-QX1SR-20" value="" style="line;strokeWidth=1;fillColor=none;align=left;verticalAlign=middle;spacingTop=-1;spacingLeft=3;spacingRight=3;rotatable=0;labelPosition=right;points=[];portConstraint=eastwest;" parent="R7YGYTRPfJBUuW-QX1SR-18" vertex="1">
          <mxGeometry y="150" width="190" height="8" as="geometry"/>
        </mxCell>
        <mxCell id="R7YGYTRPfJBUuW-QX1SR-21" value="calculerPoids()&#xa;sorties()&#xa;entres()&#xa;monter()&#xa;descendre()&#xa;" style="text;strokeColor=none;fillColor=none;align=left;verticalAlign=top;spacingLeft=4;spacingRight=4;overflow=hidden;rotatable=0;points=[[0,0.5],[1,0.5]];portConstraint=eastwest;" parent="R7YGYTRPfJBUuW-QX1SR-18" vertex="1">
          <mxGeometry y="158" width="190" height="82" as="geometry"/>
        </mxCell>
        <mxCell id="R7YGYTRPfJBUuW-QX1SR-51" style="edgeStyle=orthogonalEdgeStyle;rounded=0;orthogonalLoop=1;jettySize=auto;html=1;entryX=0.684;entryY=1.049;entryDx=0;entryDy=0;entryPerimeter=0;" parent="1" source="R7YGYTRPfJBUuW-QX1SR-40" target="R7YGYTRPfJBUuW-QX1SR-21" edge="1">
          <mxGeometry relative="1" as="geometry">
            <Array as="points">
              <mxPoint x="800" y="520"/>
              <mxPoint x="800" y="520"/>
            </Array>
          </mxGeometry>
        </mxCell>
        <mxCell id="R7YGYTRPfJBUuW-QX1SR-40" value="AscenceurVert" style="swimlane;fontStyle=1;align=center;verticalAlign=top;childLayout=stackLayout;horizontal=1;startSize=26;horizontalStack=0;resizeParent=1;resizeParentMax=0;resizeLast=0;collapsible=1;marginBottom=0;" parent="1" vertex="1">
          <mxGeometry x="690" y="560" width="220" height="100" as="geometry"/>
        </mxCell>
        <mxCell id="R7YGYTRPfJBUuW-QX1SR-41" value="Couleur = Vert&#xa;PoidsMax = x&#xa;EtageADesservir = {1,2,4,5,6,7,8,9}&#xa;&#xa;" style="text;strokeColor=none;fillColor=none;align=left;verticalAlign=top;spacingLeft=4;spacingRight=4;overflow=hidden;rotatable=0;points=[[0,0.5],[1,0.5]];portConstraint=eastwest;" parent="R7YGYTRPfJBUuW-QX1SR-40" vertex="1">
          <mxGeometry y="26" width="220" height="44" as="geometry"/>
        </mxCell>
        <mxCell id="R7YGYTRPfJBUuW-QX1SR-42" value="" style="line;strokeWidth=1;fillColor=none;align=left;verticalAlign=middle;spacingTop=-1;spacingLeft=3;spacingRight=3;rotatable=0;labelPosition=right;points=[];portConstraint=eastwest;" parent="R7YGYTRPfJBUuW-QX1SR-40" vertex="1">
          <mxGeometry y="70" width="220" height="30" as="geometry"/>
        </mxCell>
        <mxCell id="R7YGYTRPfJBUuW-QX1SR-52" style="edgeStyle=orthogonalEdgeStyle;rounded=0;orthogonalLoop=1;jettySize=auto;html=1;entryX=-0.021;entryY=0.305;entryDx=0;entryDy=0;entryPerimeter=0;" parent="1" source="R7YGYTRPfJBUuW-QX1SR-44" target="R7YGYTRPfJBUuW-QX1SR-21" edge="1">
          <mxGeometry relative="1" as="geometry"/>
        </mxCell>
        <mxCell id="R7YGYTRPfJBUuW-QX1SR-44" value="AscenceurRouge" style="swimlane;fontStyle=1;align=center;verticalAlign=top;childLayout=stackLayout;horizontal=1;startSize=26;horizontalStack=0;resizeParent=1;resizeParentMax=0;resizeLast=0;collapsible=1;marginBottom=0;" parent="1" vertex="1">
          <mxGeometry x="450" y="560" width="220" height="100" as="geometry">
            <mxRectangle x="450" y="560" width="130" height="26" as="alternateBounds"/>
          </mxGeometry>
        </mxCell>
        <mxCell id="R7YGYTRPfJBUuW-QX1SR-45" value="Couleur = Rouge&#xa;PoidsMax = x&#xa;EtageADesservir = {9,17,18,19;20,21}&#xa;&#xa;" style="text;strokeColor=none;fillColor=none;align=left;verticalAlign=top;spacingLeft=4;spacingRight=4;overflow=hidden;rotatable=0;points=[[0,0.5],[1,0.5]];portConstraint=eastwest;" parent="R7YGYTRPfJBUuW-QX1SR-44" vertex="1">
          <mxGeometry y="26" width="220" height="44" as="geometry"/>
        </mxCell>
        <mxCell id="R7YGYTRPfJBUuW-QX1SR-46" value="" style="line;strokeWidth=1;fillColor=none;align=left;verticalAlign=middle;spacingTop=-1;spacingLeft=3;spacingRight=3;rotatable=0;labelPosition=right;points=[];portConstraint=eastwest;" parent="R7YGYTRPfJBUuW-QX1SR-44" vertex="1">
          <mxGeometry y="70" width="220" height="30" as="geometry"/>
        </mxCell>
        <mxCell id="R7YGYTRPfJBUuW-QX1SR-50" style="edgeStyle=orthogonalEdgeStyle;rounded=0;orthogonalLoop=1;jettySize=auto;html=1;entryX=1;entryY=0.5;entryDx=0;entryDy=0;" parent="1" source="R7YGYTRPfJBUuW-QX1SR-47" target="R7YGYTRPfJBUuW-QX1SR-21" edge="1">
          <mxGeometry relative="1" as="geometry"/>
        </mxCell>
        <mxCell id="R7YGYTRPfJBUuW-QX1SR-47" value="AscenceurJaune" style="swimlane;fontStyle=1;align=center;verticalAlign=top;childLayout=stackLayout;horizontal=1;startSize=26;horizontalStack=0;resizeParent=1;resizeParentMax=0;resizeLast=0;collapsible=1;marginBottom=0;" parent="1" vertex="1">
          <mxGeometry x="940" y="560" width="250" height="100" as="geometry"/>
        </mxCell>
        <mxCell id="R7YGYTRPfJBUuW-QX1SR-48" value="Couleur = Rouge&#xa;PoidsMax = x&#xa;EtageADesservir = {9,10,11,12;13,14,15,16}&#xa;&#xa;" style="text;strokeColor=none;fillColor=none;align=left;verticalAlign=top;spacingLeft=4;spacingRight=4;overflow=hidden;rotatable=0;points=[[0,0.5],[1,0.5]];portConstraint=eastwest;" parent="R7YGYTRPfJBUuW-QX1SR-47" vertex="1">
          <mxGeometry y="26" width="250" height="44" as="geometry"/>
        </mxCell>
        <mxCell id="R7YGYTRPfJBUuW-QX1SR-49" value="" style="line;strokeWidth=1;fillColor=none;align=left;verticalAlign=middle;spacingTop=-1;spacingLeft=3;spacingRight=3;rotatable=0;labelPosition=right;points=[];portConstraint=eastwest;" parent="R7YGYTRPfJBUuW-QX1SR-47" vertex="1">
          <mxGeometry y="70" width="250" height="30" as="geometry"/>
        </mxCell>
        <mxCell id="HsLlScuj0kqrjAnPasCE-12" value="Etage" style="swimlane;fontStyle=1;align=center;verticalAlign=top;childLayout=stackLayout;horizontal=1;startSize=26;horizontalStack=0;resizeParent=1;resizeParentMax=0;resizeLast=0;collapsible=1;marginBottom=0;" vertex="1" parent="1">
          <mxGeometry x="120" y="560" width="250" height="98" as="geometry"/>
        </mxCell>
        <mxCell id="HsLlScuj0kqrjAnPasCE-13" value="numeroEtage : int&#xa;QueueMonte : PriorityQueue(Utilisateur)&#xa;QueueDescente : PriorityQueue(Utilisateur)&#xa;" style="text;strokeColor=none;fillColor=none;align=left;verticalAlign=top;spacingLeft=4;spacingRight=4;overflow=hidden;rotatable=0;points=[[0,0.5],[1,0.5]];portConstraint=eastwest;" vertex="1" parent="HsLlScuj0kqrjAnPasCE-12">
          <mxGeometry y="26" width="250" height="64" as="geometry"/>
        </mxCell>
        <mxCell id="HsLlScuj0kqrjAnPasCE-14" value="" style="line;strokeWidth=1;fillColor=none;align=left;verticalAlign=middle;spacingTop=-1;spacingLeft=3;spacingRight=3;rotatable=0;labelPosition=right;points=[];portConstraint=eastwest;" vertex="1" parent="HsLlScuj0kqrjAnPasCE-12">
          <mxGeometry y="90" width="250" height="8" as="geometry"/>
        </mxCell>
      </root>
    </mxGraphModel>
  </diagram>
</mxfile>
